<?xml version="1.0" standalone="no"?>
<!DOCTYPE svg PUBLIC "-//W3C//DTD SVG 20010904//EN"
 "http://www.w3.org/TR/2001/REC-SVG-20010904/DTD/svg10.dtd">
<svg version="1.0" xmlns="http://www.w3.org/2000/svg"
 width="564.000000pt" height="564.000000pt" viewBox="0 0 564.000000 564.000000"
 preserveAspectRatio="xMidYMid meet">
<metadata>
Created by potrace 1.14, written by Peter Selinger 2001-2017
</metadata>
<g transform="translate(0.000000,564.000000) scale(0.100000,-0.100000)"
fill="#000000" stroke="none">
<path d="M1345 5620 c3 -11 8 -32 11 -46 20 -112 116 -350 200 -494 73 -127
68 -120 157 -240 88 -118 173 -215 296 -337 l84 -83 -24 -26 c-13 -15 -50 -54
-83 -88 -194 -203 -392 -495 -491 -726 -143 -332 -202 -647 -171 -910 14 -118
87 -381 125 -445 9 -16 25 -52 35 -80 10 -27 22 -54 26 -60 5 -5 23 -37 41
-70 91 -167 236 -358 416 -544 65 -67 118 -126 118 -131 0 -5 -34 -44 -75 -87
-72 -75 -138 -148 -170 -189 -80 -101 -113 -148 -218 -309 -34 -53 -163 -331
-190 -410 -29 -85 -76 -258 -86 -318 l-5 -27 282 1 282 0 50 65 c28 36 62 78
77 94 l27 29 765 -1 766 0 48 -56 c27 -32 61 -74 76 -95 l28 -37 279 0 c237 0
279 2 279 15 0 25 -21 118 -51 221 -54 190 -162 419 -286 608 -54 84 -142 205
-163 226 -3 3 -34 38 -68 78 -35 40 -91 100 -123 133 l-59 61 77 77 c194 193
366 411 456 576 96 176 164 343 202 495 33 133 36 157 40 315 3 152 -8 241
-50 408 -15 56 -28 112 -31 123 -2 12 -18 55 -35 95 -16 41 -36 90 -43 109
-24 65 -112 234 -170 327 -101 163 -228 324 -377 478 l-68 70 102 105 c253
260 376 429 501 685 62 128 125 307 141 403 l5 32 -329 0 c-199 0 -331 -4
-333 -9 -1 -6 -32 -46 -68 -89 l-65 -79 -687 0 -688 0 -40 40 c-21 22 -56 62
-77 88 l-38 48 -318 1 c-313 0 -318 0 -312 -20z m1999 -311 c-13 -22 -310
-233 -394 -281 -39 -22 -56 -25 -131 -24 -84 2 -87 2 -163 50 -76 47 -284 196
-339 242 l-29 24 532 0 c379 0 529 -3 524 -11z m-246 -1597 c114 -78 368 -300
347 -303 -34 -4 -1245 -3 -1245 1 0 20 231 223 337 297 l72 50 213 -1 213 -1
63 -43z m520 -502 c16 -19 75 -92 131 -162 l101 -128 -1025 0 c-564 0 -1025 3
-1025 8 0 9 115 165 185 252 l53 65 776 0 776 0 28 -35z m194 -455 c-27 -45
-92 -131 -164 -217 l-85 -103 -743 1 c-698 1 -744 2 -756 19 -7 9 -26 32 -43
50 -45 50 -190 248 -186 254 2 3 449 6 993 6 657 0 988 -3 984 -10z m-433
-474 c11 -1 11 -4 1 -16 -39 -46 -418 -314 -449 -316 -86 -7 -201 -4 -226 6
-16 7 -111 73 -210 148 -222 167 -227 172 -221 177 3 4 1047 4 1105 1z m-295
-1634 c68 -45 232 -178 316 -256 l65 -61 -640 0 -639 0 75 73 c41 39 97 90
124 112 28 21 52 42 55 46 15 18 154 112 175 117 13 4 113 6 220 6 l196 -2 53
-35z"/>
</g>
</svg>
