<?xml version="1.0" standalone="no"?>
<!DOCTYPE svg PUBLIC "-//W3C//DTD SVG 20010904//EN"
 "http://www.w3.org/TR/2001/REC-SVG-20010904/DTD/svg10.dtd">
<svg version="1.0" xmlns="http://www.w3.org/2000/svg"
 width="505.000000pt" height="505.000000pt" viewBox="0 0 505.000000 505.000000"
 preserveAspectRatio="xMidYMid meet">
<metadata>
Created by potrace 1.14, written by Peter Selinger 2001-2017
</metadata>
<g transform="translate(0.000000,505.000000) scale(0.100000,-0.100000)"
fill="#000000" stroke="none">
<path d="M1165 4371 c-77 -36 -299 -244 -554 -521 -211 -228 -252 -291 -253
-385 -1 -62 17 -99 75 -152 88 -81 119 -89 250 -63 102 21 11 95 803 -650 497
-468 760 -719 1123 -1074 453 -441 771 -720 916 -801 152 -85 297 -86 443 -3
231 131 318 418 200 653 -12 22 -66 87 -122 144 -118 121 -1678 1591 -2323
2190 -145 133 -263 244 -263 246 0 2 7 29 14 60 24 90 -2 195 -73 293 -56 77
-151 102 -236 63z m129 -146 c34 -26 56 -69 56 -111 0 -58 -45 -120 -156 -215
-156 -134 -209 -247 -120 -257 40 -5 86 29 182 134 48 52 94 94 102 94 8 0 85
-66 171 -147 414 -391 770 -730 1376 -1308 672 -641 960 -914 1073 -1017 87
-80 107 -126 107 -248 0 -80 -4 -103 -23 -142 -36 -71 -93 -131 -164 -169 -59
-32 -69 -34 -154 -34 l-91 0 -69 46 c-159 107 -451 370 -1264 1139 -747 707
-1404 1326 -1454 1371 -78 69 -99 72 -167 29 -66 -43 -133 -44 -167 -5 -36 42
-28 124 19 199 63 102 163 220 314 371 246 248 362 321 429 270z"/>
<path d="M1335 3456 c-222 -65 -305 -93 -305 -105 0 -15 417 -408 1680 -1580
316 -294 640 -600 720 -681 170 -171 224 -205 313 -198 107 9 209 89 243 190
25 75 15 126 -36 194 -152 201 -697 728 -1660 1604 -184 167 -417 380 -517
472 -131 121 -188 168 -205 167 -13 0 -117 -29 -233 -63z"/>
<path d="M3504 4358 c-106 -72 -138 -171 -95 -301 17 -50 19 -70 11 -91 -5
-15 -72 -118 -148 -229 -76 -111 -213 -312 -304 -447 -91 -135 -175 -253 -186
-264 -18 -15 -30 -17 -84 -11 l-63 7 20 -22 c39 -44 156 -140 165 -135 9 6
530 772 633 931 61 96 97 134 123 134 6 0 47 -27 90 -61 90 -69 143 -99 177
-99 26 0 47 17 47 37 0 25 -94 115 -195 186 -125 88 -152 113 -176 159 -25 49
-24 63 7 87 56 44 180 23 338 -56 331 -166 603 -419 557 -519 -18 -39 -75 -59
-134 -45 -82 19 -110 15 -144 -21 -17 -18 -71 -94 -120 -168 -50 -74 -155
-227 -233 -340 -169 -243 -364 -537 -380 -572 -11 -22 -2 -44 81 -204 103
-200 98 -194 192 -277 64 -56 68 -58 61 -31 -21 89 -74 226 -135 352 -38 78
-69 148 -69 155 0 6 26 48 56 92 31 44 168 247 304 450 136 204 261 383 278
399 28 26 41 30 125 37 110 9 153 24 189 67 83 99 50 224 -101 384 -206 219
-614 448 -799 448 -28 0 -54 -9 -88 -32z"/>
<path d="M1319 2458 c-105 -150 -182 -345 -215 -548 -25 -152 -15 -392 24
-542 63 -243 167 -424 346 -604 199 -199 439 -332 696 -389 118 -26 366 -31
491 -11 118 20 277 70 371 117 142 71 312 197 302 224 -3 7 -23 25 -45 40
l-40 26 -84 -61 c-240 -173 -476 -247 -760 -237 -247 8 -447 75 -670 222 -248
164 -454 472 -509 762 -60 316 -3 611 172 900 l60 98 -36 38 c-20 20 -40 37
-44 37 -4 0 -31 -33 -59 -72z"/>
<path d="M1674 1705 c-27 -14 -89 -62 -139 -106 -87 -79 -148 -119 -180 -119
-18 0 -18 -2 0 -87 41 -194 122 -340 266 -479 330 -316 870 -411 1313 -231 84
34 249 134 244 147 -2 4 -75 72 -163 151 -88 79 -258 238 -377 354 -120 115
-224 213 -232 217 -10 6 -36 -2 -75 -21 -125 -63 -188 -49 -346 80 -153 125
-213 143 -311 94z"/>
</g>
</svg>
