<?xml version="1.0" encoding="UTF-8"?>
<svg xmlns="http://www.w3.org/2000/svg" version="1.1" viewBox="0 0 420 420">
  <defs>
    <style>
      .cls-1 {
        fill: #231f20;
      }
    </style>
  </defs>
  <!-- Generator: Adobe Illustrator 28.6.0, SVG Export Plug-In . SVG Version: 1.2.0 Build 709)  -->
  <g>
    <g id="Layer_1">
      <path class="cls-1" d="M333.41,390.67c-2.36,5.99-3.92,9.3-6.71,15.08,26.7,1.08,52.64.19,79.28,1.7-.16-126.65-6.96-265.4-2.03-392.24.11-.91-.26-.48-1.25-.58-.67,0-1.54,0-2.43,0-58.48.26-225.08.78-235.26,1.04-4.12.16-8.23.34-12.33.24-1.22.05-1.79,1.58-2.62,2.35-5.57,7.64-10.94,15.41-16.15,23.3-.08.19-.16.39-.25.58-.42.86-.84,1.72-1.37,2.52-.31.47-.64.99-1.01,1.42-.55,1.97-1.56,3.63-2.97,5.1-.81,1.16-1.74,2.27-2.7,3.18-2.19,3.52-4.34,7.07-6.44,10.64-.11.36-.27.7-.46,1.02-.19.59-.4,1.18-.67,1.75-.78,1.64-2.07,3.45-3.32,5-3.89,6.95-7.58,14-11.05,21.18-.15.28-.35.5-.66.6-2.86.58-5.9,1.23-8.88,1.99-9.85,2.87-18.57,5.34-32.01,9.14-2.47.68-5.13,1.68-6.46,3.72-.34,1.4-.39,2.83-1.56,4.19-1.09,1.49-2.77,2.83-4.43,4.34-.51.95-.63,2.35-.81,3.42-.21,1.64-.33,3.43-.3,5.5.1,2.11,2.23,2.06,3.96,2.1,8.27.47,26.8-8.6,36.12-7.44.31.17.25.33.05.68-3.35,5.71-6.7,11.54-9.89,17.39-3.02,4.19-4.96,9.08-5.99,14.16-.52,3.14-1.07,6.88-.39,10.24.14,1.14,1.03,2.74.88,4.15-1.14,7.29-2.13,13.91-2.97,20.02-.82,5.97-1.6,11.59-2.34,16.7-.06.32-.23.58-.54.77-6.02,3.31-10.03,5.66-13.48,8.28-1.57,1.24-3.66,3.02-3.8,4.94-.05,2.68.8,5.18,2.49,6.89,1.39,1.58,3.93,2.65,6.33,3.41,5.69,2.02,7.36,7.73,6.73,13.46-.03.89-.13,1.91-.02,2.9.37.82,1.06.99.96,1.96.03,1.26.35,3.16.18,4.28-.88,1.17-1.64,6.73-1.99,10.65-.7,7.43-1.11,22.92-.55,33.4,4.61,3.05,18.55-3.23,21.96-6.34.31-.24.46-.56.49-.95.82-10.28,1.63-20.66,2.46-30.94.76-4.64,2.04-18.27,7.95-17.71,2.45.81,4.54,2.22,7.09,3.26,2.62.95,5.28,1.55,7.74,2.42,13.39,4.01,25.75,8.83,36.97,15.96,6.9,4.02,8.31,8.11,1.1,13.39-7.39,5.56-16.68,8.73-25.21,12.77-4.41,2.22-14.38,6.27-17.25,8.23-.53.45-1.41.65-2.1.88-5.31,2.62-10.81,4.58-16.39,6.35-1.21.61-2.45,1.19-3.75,1.58-.26.08-.52.12-.78.15-.23.06-.48.1-.74.13-1.17.34-2.35.61-3.54.83-1.51.46-3.03.92-4.54,1.39-.03,0-.05.02-.07.03-1.7.52-3.31,1.67-5.07,2.21-1.25.38-2.53.66-3.81.95-11.29,3.93-22.8,7.29-33.99,11.51-1.95.68-3.92,1.32-5.89,1.96-.38.13-.59,0-.59-.41.02-97.57-1.78-194.91.49-294.3,0-.26.03-.46.06-.54.05-.12.12-.04.19-.06.06,0,.13,0,.2,0,.68.02,1.21-.01,2.04,0,23.25.1,41.48.15,70.63.28,2.32,0,4.62.01,6.91.03,2.43-4.5,5.09-8.82,7.82-13.1-30.08.12-92.86.34-93.86.36-.65,0-5.99.02-6.33.04-.16.3.17,3.7.2,5.33,2.06,103.72,1.23,209.72.31,317.25.03.23.15.35.38.37,1.71-.15,3.49-.21,5.16-.61,12.3-2.82,24.66-5.43,37.01-8.12,5.58-2.01,11.53-3.41,17.09-4.63,9.66-2.11,19.08-5.08,28.82-6.88.46-.17.97-.26,1.53-.29.33-.07.67-.12,1.04-.13.29-.07.6-.1.93-.12,9.3-2.41,18.56-4.96,27.35-7.81,2.85-1.11,5.72-2.2,8.59-3.28,2.5-.94,4.98-1.91,7.53-2.59,14.15-5.85,26-13.03,33.23-22.52,5.73-8.8,2.88-19.77-3.75-27.18-4.41-4.9-11.07-9-20.03-12.4-2.65-1.17-4.78-2.84-7.47-3.73-7.96-3.48-15.22-6.39-22.34-8.93-8.57-3.27-15.29-5.07-22.68-8.39-3.66-1.76-8.85-6.58-5.05-10.37,5.79-5.34,12.41-8.69,19.79-12.9,8.56-5.23,17.97-10.34,26.93-16.23,3-2.32,5.4-4.76,8.58-6.76,6.97-4.88,14.33-10.11,20.79-14.97,1.61-1.18,3.99-2.97,5.38-3.91,3.03-2.72,5.7-5.78,7.78-8.85,5.87-8.57,8.5-19.9,5.51-29.91-1.77-5.56-4.65-11.97-9.83-15.3-1.97-1.29-4.16-2.03-6.48-2.19-1.78-.22-3.98.22-5.59-.83-3.9-5.11-10.55-5.8-16.68-4.44-6.07-1.09-11.18-2.2-16.83-3.14-2.84-.48-5.56.73-8.2.92-1.32.3-2.41.11-3.9-.13-.82-.32-2.58.11-2.02-.83,1.99-3.64,4.06-7.24,6.15-10.82.1-.34.23-.67.4-.99.92-3.69,3.23-7.05,6.17-9.97,1.46-2.36,2.94-4.7,4.43-7.04.51-2.17.82-4.37,1.68-6.44.96-2.28,2.53-4.08,4.16-5.91,2.38-2.68,4.86-5.21,7.49-7.58,3.12-4.47,6.28-8.91,9.51-13.31.26-.36.67-.5,1.15-.49,97.86.96,211.71-.29,219.79,1.46,3.04,116.43,4.18,244.24,1.62,360.16-17.67,1.17-42.8.34-56.74-.07ZM127.87,118.79h.12c3.83.58,6.31,1.54,10.84,2.69,5.96,1.42,10.51,2.3,15.38,4.06,6.35,2.09,11.99,6.33,12.02,13.08-.24,4.1-2.32,6.87-5.04,10.46-2.88,3.43-5.58,7.3-8.66,10.53-2.16,1.29-4.7,3.01-6.87,4.43-9.02,5.78-26.16,17.69-37.05,23.83-2.57,1.3-5.65,3.44-8.06,1.26-.69-.6-.98-2-.99-3.32,0-1.63.29-3.2.76-6.22.68-4.15,1.65-8.4,2.72-12.93.1-.98-.56-3.13-.67-4.08-.04-.23-.08-.31-.02-.45.27-.45.69-1.09.98-1.6.97-1.74,1.93-3.48,2.64-5.45.03-3.16-.09-6.43.13-9.53.08-5.91,2.1-13.17,3.77-17.76.53-1.48,1.28-3.29,2.14-4.52,3.43-4.49,9.71-4.23,15.86-4.48Z"/>
      <path class="cls-1" d="M365.16,109.17c-5.95,3.21-11.52,7.65-16.07,12.18-8.76,8.7-13.3,20.11-21.3,29.69-9.42,12.03-21.24,26.81-33.04,37.67-10.56,9.5-21.8,18.04-32.87,4.38-7.57-8.81-13.61-28.4-16.6-40.91-3.07-11.54-2.66-27.37-3.22-37.12-.08-2.48-.23-5.36-.25-7.56.11-3.95,2.55-9.69,2.71-13.64.07-3.23-.04-6.4-1.57-9.04-1.47-2.37-4.18-2.97-5.89-.88-1.31.93-3.2,1.49-4.79,2.08-4.32,1.77-8.81,4.34-12.71,7.49-4.65,3.86-9.19,6.73-11.24,11.91-1.04,6.27-1.63,12.68-2.61,19.56-.15.86.23,1.67.64,2.38.56,1,1.38,1.9,1.99,2.85.08.18.09.35.05.52-.69,1.79-1.27,3.2-2.47,4.96-.79,2.5-.64,6.12-1,8.16-.32,2.99-.46,4.55-.84,6.93-.1.44-.11.68-.06,1.06.27,2.23,1.04,4.43.85,6.66-2.23,12.49-5.19,23.64-6.41,34.6,1.35,6.22,1.12,11.65.34,18.17-.57,5.73-1.94,14.18-3.01,21.1-1.05,7.2-1.67,13.09-1.87,17.68-.26,2.72.16,5.15.72,7.78.65,4.37-1.28,8.44-1.92,12.73-.62,6.16-.74,12.39-1.3,19.27-.54,3.24-1.36,6.53-1.91,9.9.31,1.69,1.3,4.58,1.56,6.25-.25,1.42-.69,4.42-.9,5.55-.25,1.01.69,1.76,1.66,1.97,2.8-.18,5.77-1.36,8-1.71,2.57-.75,5.1-.6,7.47-1.61,4.06-2.25,4.53-6.62,4.94-11.54.04-2.61.6-7.84,1.68-15.69,1.38-10.08,3.85-26.16,5.94-39.82,2.77-18.74,4.15-28.15,6.48-40.32.95-4.74,1.56-7.4,2.05-7.97.13-.07.63-.24.91.03.06.07.17.21.22.28,2.78,4.14,5.08,8.24,7.55,12.49,6.17,11.04,15.05,21.81,27.63,21.88,7.49,0,17.63-5.01,22.22-11.76,3.04-2.01,6.61-4.04,9.48-5.87.85-.88,9.4-9.32,12.19-12.2,3.97-4.36,9.07-9.24,12.74-14.25,4-4.96,7.74-10.33,12.3-14.43.68-.57,1.12-.93,1.82-1.25.96-.41,2.32.28,2.55,1.3.57,1.99-.12,3.98-.54,5.88-2.98,10.1-4.68,21.11-6.32,30.72-3.43,19.05-6.91,36.22-9.41,54.42-1.38,4.82-2.68,9.88-3.39,14.75-2.05,7.69-4.5,15.27-7.08,22.81-1.11,5.83-2.44,11.46-4.39,17.11-3.34,9.7-6.27,19.78-9.93,29.44-.39,1.97-.94,3.88-1.81,5.65-.3,1.15-.69,2.3-1.19,3.42-3.63,12.02-8.74,23.56-13.96,34.93-80.09,2.43-169.41.37-250.78-.74-.4,0-.61-.21-.63-.61-.29-6.37-.55-12.74-.8-19.1-.07-1.92-.14-3.85-.21-5.77-4.5,1.03-9.02,2-13.55,2.9-.37,10.03-.7,20.07-1.15,30.07-.08,2.3-.32,5.73-.39,7.87,0,.7-.14.85.11.81,49.16-1.24,96.31-1.46,145.97-2.05,45.03-.71,92.07.63,136.21.4.37-.01.85-.05,1.29-.08.63-.05,1.34.07,1.55-.62,1.84-4.74,3.75-9.43,5.69-14.11,1.19-3.58,2.58-7.05,4.22-10.44.65-2.06,1.38-4.09,2.14-6.11.64-1.72,1.38-3.35,2.19-4.94.07-.2.14-.4.21-.6,2.07-6.45,3.87-13.19,6.68-19.25.27-.59.56-1.18.85-1.76,3.72-9.99,6.78-20.24,10.56-30.25.31-1.54.69-3.07,1.21-4.58,1.58-6.52,3.55-12.96,5.13-19.47,2.5-11.28,6.29-23.14,7.79-35.12.53-7.19,1.73-15.18,4.78-21.5,1.25-2.78,2.67-5.45,3.53-8.32,1.3-7.63,2.06-14.19,4.33-21.33,3.94-12.73,8.61-26.88,11.16-39.42,3.25-14.12,4.4-26.79,5.87-40.76v-.18c-.03-5.45-.34-21.39-8.85-15.95Z"/>
    </g>
  </g>
</svg>